<mxfile host="app.diagrams.net" agent="Mozilla/5.0 (Windows NT 10.0; Win64; x64) AppleWebKit/537.36 (KHTML, like Gecko) Chrome/135.0.0.0 Safari/537.36" version="26.2.14">
  <diagram name="Page-1" id="74e2e168-ea6b-b213-b513-2b3c1d86103e">
    <mxGraphModel grid="1" page="1" gridSize="10" guides="1" tooltips="1" connect="1" arrows="1" fold="1" pageScale="1" pageWidth="1100" pageHeight="850" background="none" math="0" shadow="0">
      <root>
        <mxCell id="0" />
        <mxCell id="1" parent="0" />
        <mxCell id="77e6c97f196da883-1" value="Pool" style="swimlane;html=1;childLayout=stackLayout;startSize=10;rounded=0;shadow=0;labelBackgroundColor=none;strokeWidth=1;fontFamily=Verdana;fontSize=8;align=center;fillColor=#e1d5e7;strokeColor=#9673a6;" vertex="1" parent="1">
          <mxGeometry x="-10" y="20" width="1240" height="1470" as="geometry" />
        </mxCell>
        <mxCell id="nAtf7Hfz_0dXl6O6W2-j-7" value="" style="edgeStyle=orthogonalEdgeStyle;rounded=0;orthogonalLoop=1;jettySize=auto;html=1;" edge="1" parent="77e6c97f196da883-1" source="nAtf7Hfz_0dXl6O6W2-j-2" target="nAtf7Hfz_0dXl6O6W2-j-6">
          <mxGeometry relative="1" as="geometry" />
        </mxCell>
        <mxCell id="nAtf7Hfz_0dXl6O6W2-j-45" value="" style="endArrow=classic;html=1;rounded=0;exitX=0;exitY=0.75;exitDx=0;exitDy=0;entryX=0.991;entryY=0.38;entryDx=0;entryDy=0;entryPerimeter=0;" edge="1" parent="77e6c97f196da883-1" source="nAtf7Hfz_0dXl6O6W2-j-44" target="nAtf7Hfz_0dXl6O6W2-j-46">
          <mxGeometry width="50" height="50" relative="1" as="geometry">
            <mxPoint x="610" y="490" as="sourcePoint" />
            <mxPoint x="480" y="560" as="targetPoint" />
          </mxGeometry>
        </mxCell>
        <mxCell id="nAtf7Hfz_0dXl6O6W2-j-71" value="" style="endArrow=classic;html=1;rounded=0;exitX=0;exitY=0.5;exitDx=0;exitDy=0;entryX=1;entryY=0.5;entryDx=0;entryDy=0;" edge="1" parent="77e6c97f196da883-1" source="nAtf7Hfz_0dXl6O6W2-j-70" target="nAtf7Hfz_0dXl6O6W2-j-73">
          <mxGeometry width="50" height="50" relative="1" as="geometry">
            <mxPoint x="630" y="820" as="sourcePoint" />
            <mxPoint x="500" y="870" as="targetPoint" />
          </mxGeometry>
        </mxCell>
        <mxCell id="77e6c97f196da883-2" value="Usuário" style="swimlane;html=1;startSize=20;fillColor=#e1d5e7;strokeColor=#9673a6;" vertex="1" parent="77e6c97f196da883-1">
          <mxGeometry y="10" width="630" height="1460" as="geometry" />
        </mxCell>
        <mxCell id="nAtf7Hfz_0dXl6O6W2-j-2" value="&lt;b&gt;Acessa a página de gêneros literários&lt;/b&gt;" style="rounded=1;whiteSpace=wrap;html=1;fillColor=#e1d5e7;strokeColor=#9673a6;" vertex="1" parent="77e6c97f196da883-2">
          <mxGeometry x="175" y="120" width="140" height="60" as="geometry" />
        </mxCell>
        <mxCell id="nAtf7Hfz_0dXl6O6W2-j-5" value="" style="edgeStyle=orthogonalEdgeStyle;rounded=0;orthogonalLoop=1;jettySize=auto;html=1;" edge="1" parent="77e6c97f196da883-2" source="nAtf7Hfz_0dXl6O6W2-j-4" target="nAtf7Hfz_0dXl6O6W2-j-2">
          <mxGeometry relative="1" as="geometry" />
        </mxCell>
        <mxCell id="nAtf7Hfz_0dXl6O6W2-j-4" value="" style="ellipse;whiteSpace=wrap;html=1;aspect=fixed;fillColor=#000000;" vertex="1" parent="77e6c97f196da883-2">
          <mxGeometry x="230" y="40" width="30" height="30" as="geometry" />
        </mxCell>
        <mxCell id="nAtf7Hfz_0dXl6O6W2-j-16" value="" style="endArrow=classic;html=1;rounded=0;entryX=0.975;entryY=0.387;entryDx=0;entryDy=0;entryPerimeter=0;" edge="1" parent="77e6c97f196da883-2" target="nAtf7Hfz_0dXl6O6W2-j-18">
          <mxGeometry width="50" height="50" relative="1" as="geometry">
            <mxPoint x="610" y="230" as="sourcePoint" />
            <mxPoint x="430" y="255" as="targetPoint" />
          </mxGeometry>
        </mxCell>
        <mxCell id="nAtf7Hfz_0dXl6O6W2-j-20" value="" style="edgeStyle=orthogonalEdgeStyle;rounded=0;orthogonalLoop=1;jettySize=auto;html=1;" edge="1" parent="77e6c97f196da883-2" source="nAtf7Hfz_0dXl6O6W2-j-18" target="nAtf7Hfz_0dXl6O6W2-j-19">
          <mxGeometry relative="1" as="geometry" />
        </mxCell>
        <mxCell id="nAtf7Hfz_0dXl6O6W2-j-18" value="&lt;b&gt;Visualiza os gêneros disponíveis&lt;/b&gt;" style="rounded=1;whiteSpace=wrap;html=1;fillColor=#e1d5e7;strokeColor=#9673a6;" vertex="1" parent="77e6c97f196da883-2">
          <mxGeometry x="317.5" y="230" width="160" height="60" as="geometry" />
        </mxCell>
        <mxCell id="nAtf7Hfz_0dXl6O6W2-j-22" value="" style="edgeStyle=orthogonalEdgeStyle;rounded=0;orthogonalLoop=1;jettySize=auto;html=1;entryX=0.5;entryY=0;entryDx=0;entryDy=0;" edge="1" parent="77e6c97f196da883-2" source="nAtf7Hfz_0dXl6O6W2-j-19" target="nAtf7Hfz_0dXl6O6W2-j-23">
          <mxGeometry relative="1" as="geometry">
            <mxPoint x="120" y="350" as="targetPoint" />
          </mxGeometry>
        </mxCell>
        <mxCell id="nAtf7Hfz_0dXl6O6W2-j-19" value="&lt;b&gt;Escolhe um gênero&lt;/b&gt;" style="whiteSpace=wrap;html=1;fillColor=#e1d5e7;strokeColor=#9673a6;rounded=1;" vertex="1" parent="77e6c97f196da883-2">
          <mxGeometry x="60" y="230" width="120" height="60" as="geometry" />
        </mxCell>
        <mxCell id="nAtf7Hfz_0dXl6O6W2-j-23" value="" style="rhombus;whiteSpace=wrap;html=1;fillColor=#e1d5e7;strokeColor=#9673a6;" vertex="1" parent="77e6c97f196da883-2">
          <mxGeometry x="100" y="353" width="40" height="25" as="geometry" />
        </mxCell>
        <mxCell id="nAtf7Hfz_0dXl6O6W2-j-27" value="" style="endArrow=classic;html=1;rounded=0;entryX=0.5;entryY=0;entryDx=0;entryDy=0;exitX=0.5;exitY=1;exitDx=0;exitDy=0;" edge="1" parent="77e6c97f196da883-2" source="nAtf7Hfz_0dXl6O6W2-j-23" target="nAtf7Hfz_0dXl6O6W2-j-33">
          <mxGeometry width="50" height="50" relative="1" as="geometry">
            <mxPoint x="120" y="372" as="sourcePoint" />
            <mxPoint x="100" y="480" as="targetPoint" />
          </mxGeometry>
        </mxCell>
        <mxCell id="nAtf7Hfz_0dXl6O6W2-j-29" value="(sim)" style="text;html=1;align=center;verticalAlign=middle;whiteSpace=wrap;rounded=0;fontSize=13;" vertex="1" parent="77e6c97f196da883-2">
          <mxGeometry x="345" y="330" width="100" height="30" as="geometry" />
        </mxCell>
        <mxCell id="nAtf7Hfz_0dXl6O6W2-j-30" value="(não)" style="text;html=1;align=center;verticalAlign=middle;whiteSpace=wrap;rounded=0;fontSize=13;" vertex="1" parent="77e6c97f196da883-2">
          <mxGeometry x="60" y="408" width="60" height="30" as="geometry" />
        </mxCell>
        <mxCell id="nAtf7Hfz_0dXl6O6W2-j-33" value="" style="ellipse;whiteSpace=wrap;html=1;aspect=fixed;" vertex="1" parent="77e6c97f196da883-2">
          <mxGeometry x="80" y="490" width="30" height="30" as="geometry" />
        </mxCell>
        <mxCell id="nAtf7Hfz_0dXl6O6W2-j-34" value="" style="ellipse;whiteSpace=wrap;html=1;aspect=fixed;fillColor=#000000;" vertex="1" parent="77e6c97f196da883-2">
          <mxGeometry x="82.5" y="492.5" width="25" height="25" as="geometry" />
        </mxCell>
        <mxCell id="nAtf7Hfz_0dXl6O6W2-j-46" value="&lt;b&gt;Visualiza a lista de livros do gênero selecionado&lt;/b&gt;" style="rounded=1;whiteSpace=wrap;html=1;fillColor=#e1d5e7;strokeColor=#9673a6;" vertex="1" parent="77e6c97f196da883-2">
          <mxGeometry x="315" y="520" width="160" height="60" as="geometry" />
        </mxCell>
        <mxCell id="nAtf7Hfz_0dXl6O6W2-j-51" value="" style="edgeStyle=orthogonalEdgeStyle;rounded=0;orthogonalLoop=1;jettySize=auto;html=1;entryX=0.5;entryY=0;entryDx=0;entryDy=0;" edge="1" parent="77e6c97f196da883-2" source="nAtf7Hfz_0dXl6O6W2-j-47" target="nAtf7Hfz_0dXl6O6W2-j-52">
          <mxGeometry relative="1" as="geometry">
            <mxPoint x="130" y="685" as="targetPoint" />
          </mxGeometry>
        </mxCell>
        <mxCell id="nAtf7Hfz_0dXl6O6W2-j-47" value="&lt;b&gt;Escolhe um livro&lt;/b&gt;" style="rounded=1;whiteSpace=wrap;html=1;fillColor=#e1d5e7;strokeColor=#9673a6;" vertex="1" parent="77e6c97f196da883-2">
          <mxGeometry x="40" y="570" width="180" height="50" as="geometry" />
        </mxCell>
        <mxCell id="nAtf7Hfz_0dXl6O6W2-j-49" value="" style="endArrow=classic;html=1;rounded=0;exitX=0;exitY=0.75;exitDx=0;exitDy=0;entryX=1;entryY=0.5;entryDx=0;entryDy=0;" edge="1" parent="77e6c97f196da883-2" source="nAtf7Hfz_0dXl6O6W2-j-46" target="nAtf7Hfz_0dXl6O6W2-j-47">
          <mxGeometry width="50" height="50" relative="1" as="geometry">
            <mxPoint x="300" y="560" as="sourcePoint" />
            <mxPoint x="250" y="610" as="targetPoint" />
          </mxGeometry>
        </mxCell>
        <mxCell id="nAtf7Hfz_0dXl6O6W2-j-52" value="" style="rhombus;whiteSpace=wrap;html=1;fillColor=#e1d5e7;strokeColor=#9673a6;" vertex="1" parent="77e6c97f196da883-2">
          <mxGeometry x="110" y="690" width="40" height="25" as="geometry" />
        </mxCell>
        <mxCell id="nAtf7Hfz_0dXl6O6W2-j-56" value="(sim)" style="text;html=1;align=center;verticalAlign=middle;whiteSpace=wrap;rounded=0;fontSize=13;" vertex="1" parent="77e6c97f196da883-2">
          <mxGeometry x="320" y="650" width="60" height="30" as="geometry" />
        </mxCell>
        <mxCell id="nAtf7Hfz_0dXl6O6W2-j-58" value="" style="endArrow=classic;html=1;rounded=0;entryX=1;entryY=0;entryDx=0;entryDy=0;" edge="1" parent="77e6c97f196da883-2" target="nAtf7Hfz_0dXl6O6W2-j-60">
          <mxGeometry width="50" height="50" relative="1" as="geometry">
            <mxPoint x="120" y="710" as="sourcePoint" />
            <mxPoint x="70" y="780" as="targetPoint" />
          </mxGeometry>
        </mxCell>
        <mxCell id="nAtf7Hfz_0dXl6O6W2-j-60" value="" style="ellipse;whiteSpace=wrap;html=1;aspect=fixed;" vertex="1" parent="77e6c97f196da883-2">
          <mxGeometry x="40" y="780" width="30" height="30" as="geometry" />
        </mxCell>
        <mxCell id="nAtf7Hfz_0dXl6O6W2-j-61" value="" style="ellipse;whiteSpace=wrap;html=1;aspect=fixed;fillColor=#000000;" vertex="1" parent="77e6c97f196da883-2">
          <mxGeometry x="42.5" y="782.5" width="25" height="25" as="geometry" />
        </mxCell>
        <mxCell id="nAtf7Hfz_0dXl6O6W2-j-63" value="(não)" style="text;html=1;align=center;verticalAlign=middle;whiteSpace=wrap;rounded=0;fontSize=13;" vertex="1" parent="77e6c97f196da883-2">
          <mxGeometry x="47.5" y="730" width="60" height="30" as="geometry" />
        </mxCell>
        <mxCell id="nAtf7Hfz_0dXl6O6W2-j-75" value="" style="edgeStyle=orthogonalEdgeStyle;rounded=0;orthogonalLoop=1;jettySize=auto;html=1;" edge="1" parent="77e6c97f196da883-2" source="nAtf7Hfz_0dXl6O6W2-j-73" target="nAtf7Hfz_0dXl6O6W2-j-74">
          <mxGeometry relative="1" as="geometry" />
        </mxCell>
        <mxCell id="nAtf7Hfz_0dXl6O6W2-j-73" value="&lt;b&gt;Visualiza o pop-up com as informações do livro&lt;/b&gt;" style="rounded=1;whiteSpace=wrap;html=1;fillColor=#e1d5e7;strokeColor=#9673a6;" vertex="1" parent="77e6c97f196da883-2">
          <mxGeometry x="330" y="820" width="160" height="60" as="geometry" />
        </mxCell>
        <mxCell id="nAtf7Hfz_0dXl6O6W2-j-77" value="" style="edgeStyle=orthogonalEdgeStyle;rounded=0;orthogonalLoop=1;jettySize=auto;html=1;entryX=0.5;entryY=0;entryDx=0;entryDy=0;" edge="1" parent="77e6c97f196da883-2" source="nAtf7Hfz_0dXl6O6W2-j-74">
          <mxGeometry relative="1" as="geometry">
            <mxPoint x="170" y="975" as="targetPoint" />
          </mxGeometry>
        </mxCell>
        <mxCell id="nAtf7Hfz_0dXl6O6W2-j-74" value="&lt;b&gt;Interage com o pop-up&lt;/b&gt;" style="rounded=1;whiteSpace=wrap;html=1;fillColor=#e1d5e7;strokeColor=#9673a6;" vertex="1" parent="77e6c97f196da883-2">
          <mxGeometry x="90" y="820" width="160" height="60" as="geometry" />
        </mxCell>
        <mxCell id="nAtf7Hfz_0dXl6O6W2-j-79" value="" style="endArrow=classic;html=1;rounded=0;exitX=1;exitY=0.5;exitDx=0;exitDy=0;" edge="1" parent="77e6c97f196da883-2">
          <mxGeometry width="50" height="50" relative="1" as="geometry">
            <mxPoint x="190" y="987.5" as="sourcePoint" />
            <mxPoint x="300" y="983" as="targetPoint" />
          </mxGeometry>
        </mxCell>
        <mxCell id="nAtf7Hfz_0dXl6O6W2-j-80" value="(sim)" style="text;html=1;align=center;verticalAlign=middle;whiteSpace=wrap;rounded=0;fontSize=13;" vertex="1" parent="77e6c97f196da883-2">
          <mxGeometry x="240" y="960" width="60" height="30" as="geometry" />
        </mxCell>
        <mxCell id="nAtf7Hfz_0dXl6O6W2-j-81" value="v" style="rounded=0;whiteSpace=wrap;html=1;direction=south;strokeColor=#000000;fillColor=#000000;" vertex="1" parent="77e6c97f196da883-2">
          <mxGeometry x="300" y="943.75" width="10" height="77.5" as="geometry" />
        </mxCell>
        <mxCell id="nAtf7Hfz_0dXl6O6W2-j-82" value="" style="endArrow=classic;html=1;rounded=0;entryX=0;entryY=0.5;entryDx=0;entryDy=0;" edge="1" parent="77e6c97f196da883-2" target="nAtf7Hfz_0dXl6O6W2-j-83">
          <mxGeometry width="50" height="50" relative="1" as="geometry">
            <mxPoint x="310" y="970" as="sourcePoint" />
            <mxPoint x="400" y="970" as="targetPoint" />
          </mxGeometry>
        </mxCell>
        <mxCell id="nAtf7Hfz_0dXl6O6W2-j-83" value="&lt;b&gt;Adiciona à lista&lt;/b&gt;" style="rounded=1;whiteSpace=wrap;html=1;fillColor=#e1d5e7;strokeColor=#9673a6;" vertex="1" parent="77e6c97f196da883-2">
          <mxGeometry x="410" y="950" width="130" height="30" as="geometry" />
        </mxCell>
        <mxCell id="nAtf7Hfz_0dXl6O6W2-j-85" value="" style="endArrow=classic;html=1;rounded=0;entryX=0;entryY=0.5;entryDx=0;entryDy=0;" edge="1" parent="77e6c97f196da883-2" target="nAtf7Hfz_0dXl6O6W2-j-86">
          <mxGeometry width="50" height="50" relative="1" as="geometry">
            <mxPoint x="310" y="1010" as="sourcePoint" />
            <mxPoint x="410" y="1010" as="targetPoint" />
          </mxGeometry>
        </mxCell>
        <mxCell id="nAtf7Hfz_0dXl6O6W2-j-86" value="&lt;b&gt;Avalia com estrelas&lt;/b&gt;" style="rounded=1;whiteSpace=wrap;html=1;fillColor=#e1d5e7;strokeColor=#9673a6;" vertex="1" parent="77e6c97f196da883-2">
          <mxGeometry x="410" y="1000" width="130" height="30" as="geometry" />
        </mxCell>
        <mxCell id="nAtf7Hfz_0dXl6O6W2-j-87" value="" style="endArrow=classic;html=1;rounded=0;exitX=0;exitY=1;exitDx=0;exitDy=0;" edge="1" parent="77e6c97f196da883-2">
          <mxGeometry width="50" height="50" relative="1" as="geometry">
            <mxPoint x="160" y="993.75" as="sourcePoint" />
            <mxPoint x="100" y="1060" as="targetPoint" />
          </mxGeometry>
        </mxCell>
        <mxCell id="nAtf7Hfz_0dXl6O6W2-j-88" value="&lt;b&gt;Fecha o pop-up&lt;/b&gt;" style="rounded=1;whiteSpace=wrap;html=1;fillColor=#e1d5e7;strokeColor=#9673a6;" vertex="1" parent="77e6c97f196da883-2">
          <mxGeometry x="30" y="1060" width="130" height="30" as="geometry" />
        </mxCell>
        <mxCell id="nAtf7Hfz_0dXl6O6W2-j-89" value="(não)" style="text;html=1;align=center;verticalAlign=middle;whiteSpace=wrap;rounded=0;fontSize=13;" vertex="1" parent="77e6c97f196da883-2">
          <mxGeometry x="82.5" y="1010" width="60" height="30" as="geometry" />
        </mxCell>
        <mxCell id="nAtf7Hfz_0dXl6O6W2-j-90" value="" style="endArrow=classic;html=1;rounded=0;exitX=0.5;exitY=1;exitDx=0;exitDy=0;entryX=0.5;entryY=0;entryDx=0;entryDy=0;" edge="1" parent="77e6c97f196da883-2" source="nAtf7Hfz_0dXl6O6W2-j-88" target="nAtf7Hfz_0dXl6O6W2-j-92">
          <mxGeometry width="50" height="50" relative="1" as="geometry">
            <mxPoint x="94.5" y="1090" as="sourcePoint" />
            <mxPoint x="94.5" y="1150" as="targetPoint" />
          </mxGeometry>
        </mxCell>
        <mxCell id="nAtf7Hfz_0dXl6O6W2-j-92" value="" style="ellipse;whiteSpace=wrap;html=1;aspect=fixed;fillColor=#FFFFFF;" vertex="1" parent="77e6c97f196da883-2">
          <mxGeometry x="80" y="1160" width="30" height="30" as="geometry" />
        </mxCell>
        <mxCell id="nAtf7Hfz_0dXl6O6W2-j-93" value="" style="ellipse;whiteSpace=wrap;html=1;aspect=fixed;fillColor=#000000;" vertex="1" parent="77e6c97f196da883-2">
          <mxGeometry x="82.5" y="1162.5" width="25" height="25" as="geometry" />
        </mxCell>
        <mxCell id="nAtf7Hfz_0dXl6O6W2-j-94" value="" style="endArrow=classic;html=1;rounded=0;exitX=1;exitY=0.5;exitDx=0;exitDy=0;" edge="1" parent="77e6c97f196da883-2" source="nAtf7Hfz_0dXl6O6W2-j-83">
          <mxGeometry width="50" height="50" relative="1" as="geometry">
            <mxPoint x="540" y="970" as="sourcePoint" />
            <mxPoint x="690" y="960" as="targetPoint" />
          </mxGeometry>
        </mxCell>
        <mxCell id="nAtf7Hfz_0dXl6O6W2-j-95" value="" style="endArrow=classic;html=1;rounded=0;exitX=1;exitY=0.5;exitDx=0;exitDy=0;" edge="1" parent="77e6c97f196da883-2" source="nAtf7Hfz_0dXl6O6W2-j-86">
          <mxGeometry width="50" height="50" relative="1" as="geometry">
            <mxPoint x="540" y="1015" as="sourcePoint" />
            <mxPoint x="690" y="1010" as="targetPoint" />
          </mxGeometry>
        </mxCell>
        <mxCell id="nAtf7Hfz_0dXl6O6W2-j-116" value="&lt;b&gt;Visualiza notificação&lt;/b&gt;" style="rounded=1;whiteSpace=wrap;html=1;fillColor=#e1d5e7;strokeColor=#9673a6;" vertex="1" parent="77e6c97f196da883-2">
          <mxGeometry x="420" y="1180" width="130" height="30" as="geometry" />
        </mxCell>
        <mxCell id="nAtf7Hfz_0dXl6O6W2-j-120" value="" style="endArrow=classic;html=1;rounded=0;entryX=1;entryY=0;entryDx=0;entryDy=0;" edge="1" parent="77e6c97f196da883-2" target="nAtf7Hfz_0dXl6O6W2-j-121">
          <mxGeometry width="50" height="50" relative="1" as="geometry">
            <mxPoint x="420" y="1190" as="sourcePoint" />
            <mxPoint x="320" y="1260" as="targetPoint" />
          </mxGeometry>
        </mxCell>
        <mxCell id="nAtf7Hfz_0dXl6O6W2-j-121" value="" style="ellipse;whiteSpace=wrap;html=1;aspect=fixed;fillColor=#e1d5e7;strokeColor=#9673a6;" vertex="1" parent="77e6c97f196da883-2">
          <mxGeometry x="287.5" y="1250" width="30" height="30" as="geometry" />
        </mxCell>
        <mxCell id="nAtf7Hfz_0dXl6O6W2-j-122" value="" style="endArrow=none;html=1;rounded=0;exitX=0;exitY=1;exitDx=0;exitDy=0;" edge="1" parent="77e6c97f196da883-2" source="nAtf7Hfz_0dXl6O6W2-j-121">
          <mxGeometry width="50" height="50" relative="1" as="geometry">
            <mxPoint x="295" y="1275" as="sourcePoint" />
            <mxPoint x="315" y="1255" as="targetPoint" />
          </mxGeometry>
        </mxCell>
        <mxCell id="nAtf7Hfz_0dXl6O6W2-j-123" value="" style="endArrow=none;html=1;rounded=0;exitX=0;exitY=0;exitDx=0;exitDy=0;entryX=1;entryY=1;entryDx=0;entryDy=0;" edge="1" parent="77e6c97f196da883-2" source="nAtf7Hfz_0dXl6O6W2-j-121" target="nAtf7Hfz_0dXl6O6W2-j-121">
          <mxGeometry width="50" height="50" relative="1" as="geometry">
            <mxPoint x="292.5" y="1257.5" as="sourcePoint" />
            <mxPoint x="317.5" y="1272.5" as="targetPoint" />
          </mxGeometry>
        </mxCell>
        <mxCell id="BpLejBUO5Ut4dV1jbB08-2" value="" style="rhombus;whiteSpace=wrap;html=1;fillColor=#e1d5e7;strokeColor=#9673a6;" vertex="1" parent="77e6c97f196da883-2">
          <mxGeometry x="150" y="975" width="40" height="25" as="geometry" />
        </mxCell>
        <mxCell id="nAtf7Hfz_0dXl6O6W2-j-55" value="" style="endArrow=classic;html=1;rounded=0;exitX=1;exitY=1;exitDx=0;exitDy=0;entryX=0;entryY=0.5;entryDx=0;entryDy=0;" edge="1" parent="77e6c97f196da883-1" source="nAtf7Hfz_0dXl6O6W2-j-52" target="nAtf7Hfz_0dXl6O6W2-j-65">
          <mxGeometry width="50" height="50" relative="1" as="geometry">
            <mxPoint x="150" y="725" as="sourcePoint" />
            <mxPoint x="305" y="740" as="targetPoint" />
          </mxGeometry>
        </mxCell>
        <mxCell id="nAtf7Hfz_0dXl6O6W2-j-28" value="" style="endArrow=classic;html=1;rounded=0;exitX=1;exitY=1;exitDx=0;exitDy=0;entryX=0;entryY=0.75;entryDx=0;entryDy=0;" edge="1" parent="77e6c97f196da883-1" source="nAtf7Hfz_0dXl6O6W2-j-23" target="nAtf7Hfz_0dXl6O6W2-j-37">
          <mxGeometry width="50" height="50" relative="1" as="geometry">
            <mxPoint x="140" y="390" as="sourcePoint" />
            <mxPoint x="260" y="443" as="targetPoint" />
          </mxGeometry>
        </mxCell>
        <mxCell id="77e6c97f196da883-3" value="Sistema" style="swimlane;html=1;startSize=20;fillColor=#e1d5e7;strokeColor=#9673a6;" vertex="1" parent="77e6c97f196da883-1">
          <mxGeometry x="630" y="10" width="610" height="1460" as="geometry" />
        </mxCell>
        <mxCell id="nAtf7Hfz_0dXl6O6W2-j-6" value="&lt;b&gt;Exibe a lista de gêneros literários disponíveis&lt;/b&gt;" style="rounded=1;whiteSpace=wrap;html=1;fillColor=#e1d5e7;strokeColor=#9673a6;" vertex="1" parent="77e6c97f196da883-3">
          <mxGeometry x="75" y="120" width="165" height="60" as="geometry" />
        </mxCell>
        <mxCell id="nAtf7Hfz_0dXl6O6W2-j-9" value="" style="edgeStyle=orthogonalEdgeStyle;rounded=0;orthogonalLoop=1;jettySize=auto;html=1;" edge="1" parent="77e6c97f196da883-3" source="nAtf7Hfz_0dXl6O6W2-j-8" target="nAtf7Hfz_0dXl6O6W2-j-6">
          <mxGeometry relative="1" as="geometry" />
        </mxCell>
        <mxCell id="nAtf7Hfz_0dXl6O6W2-j-8" value="" style="ellipse;whiteSpace=wrap;html=1;aspect=fixed;fillColor=#000000;" vertex="1" parent="77e6c97f196da883-3">
          <mxGeometry x="142.5" y="40" width="30" height="30" as="geometry" />
        </mxCell>
        <mxCell id="nAtf7Hfz_0dXl6O6W2-j-15" value="" style="endArrow=none;html=1;rounded=0;" edge="1" parent="77e6c97f196da883-3">
          <mxGeometry width="50" height="50" relative="1" as="geometry">
            <mxPoint x="-20" y="230" as="sourcePoint" />
            <mxPoint x="80" y="180" as="targetPoint" />
          </mxGeometry>
        </mxCell>
        <mxCell id="nAtf7Hfz_0dXl6O6W2-j-40" value="" style="edgeStyle=orthogonalEdgeStyle;rounded=0;orthogonalLoop=1;jettySize=auto;html=1;" edge="1" parent="77e6c97f196da883-3" source="nAtf7Hfz_0dXl6O6W2-j-37" target="nAtf7Hfz_0dXl6O6W2-j-39">
          <mxGeometry relative="1" as="geometry" />
        </mxCell>
        <mxCell id="nAtf7Hfz_0dXl6O6W2-j-37" value="&lt;b&gt;Recebe a seleção do gênero&lt;/b&gt;" style="rounded=1;whiteSpace=wrap;html=1;fillColor=#e1d5e7;strokeColor=#9673a6;" vertex="1" parent="77e6c97f196da883-3">
          <mxGeometry x="70" y="290" width="180" height="60" as="geometry" />
        </mxCell>
        <mxCell id="nAtf7Hfz_0dXl6O6W2-j-39" value="&lt;b&gt;Pesquisa e recupera os livros do gênero&lt;/b&gt;" style="rounded=1;whiteSpace=wrap;html=1;fillColor=#e1d5e7;strokeColor=#9673a6;" vertex="1" parent="77e6c97f196da883-3">
          <mxGeometry x="330" y="290" width="180" height="60" as="geometry" />
        </mxCell>
        <mxCell id="nAtf7Hfz_0dXl6O6W2-j-42" value="" style="curved=1;endArrow=classic;html=1;rounded=0;exitX=0.25;exitY=1;exitDx=0;exitDy=0;entryX=1;entryY=0.5;entryDx=0;entryDy=0;" edge="1" parent="77e6c97f196da883-3" source="nAtf7Hfz_0dXl6O6W2-j-39" target="nAtf7Hfz_0dXl6O6W2-j-44">
          <mxGeometry width="50" height="50" relative="1" as="geometry">
            <mxPoint x="320" y="430" as="sourcePoint" />
            <mxPoint x="280" y="430" as="targetPoint" />
            <Array as="points">
              <mxPoint x="370" y="420" />
            </Array>
          </mxGeometry>
        </mxCell>
        <mxCell id="nAtf7Hfz_0dXl6O6W2-j-44" value="&lt;b&gt;Exibe a lista de livros do gênero&lt;/b&gt;" style="rounded=1;whiteSpace=wrap;html=1;fillColor=#e1d5e7;strokeColor=#9673a6;" vertex="1" parent="77e6c97f196da883-3">
          <mxGeometry x="80" y="430" width="170" height="50" as="geometry" />
        </mxCell>
        <mxCell id="nAtf7Hfz_0dXl6O6W2-j-67" value="" style="edgeStyle=orthogonalEdgeStyle;rounded=0;orthogonalLoop=1;jettySize=auto;html=1;" edge="1" parent="77e6c97f196da883-3" source="nAtf7Hfz_0dXl6O6W2-j-65" target="nAtf7Hfz_0dXl6O6W2-j-66">
          <mxGeometry relative="1" as="geometry" />
        </mxCell>
        <mxCell id="nAtf7Hfz_0dXl6O6W2-j-65" value="&lt;b&gt;Recebe a seleção do livro&lt;/b&gt;" style="rounded=1;whiteSpace=wrap;html=1;fillColor=#e1d5e7;strokeColor=#9673a6;" vertex="1" parent="77e6c97f196da883-3">
          <mxGeometry x="90" y="610" width="170" height="50" as="geometry" />
        </mxCell>
        <mxCell id="nAtf7Hfz_0dXl6O6W2-j-66" value="&lt;b&gt;Pesquisa e recupera os detalhes do livro&lt;/b&gt;" style="rounded=1;whiteSpace=wrap;html=1;fillColor=#e1d5e7;strokeColor=#9673a6;" vertex="1" parent="77e6c97f196da883-3">
          <mxGeometry x="340" y="610" width="170" height="50" as="geometry" />
        </mxCell>
        <mxCell id="nAtf7Hfz_0dXl6O6W2-j-68" value="" style="curved=1;endArrow=classic;html=1;rounded=0;exitX=0.334;exitY=0.944;exitDx=0;exitDy=0;entryX=1;entryY=0.5;entryDx=0;entryDy=0;exitPerimeter=0;" edge="1" parent="77e6c97f196da883-3" source="nAtf7Hfz_0dXl6O6W2-j-66" target="nAtf7Hfz_0dXl6O6W2-j-70">
          <mxGeometry width="50" height="50" relative="1" as="geometry">
            <mxPoint x="395" y="660" as="sourcePoint" />
            <mxPoint x="270" y="765" as="targetPoint" />
            <Array as="points">
              <mxPoint x="390" y="730" />
            </Array>
          </mxGeometry>
        </mxCell>
        <mxCell id="nAtf7Hfz_0dXl6O6W2-j-70" value="&lt;b&gt;Exibe o pop-up com as informações do livro&lt;/b&gt;" style="rounded=1;whiteSpace=wrap;html=1;fillColor=#e1d5e7;strokeColor=#9673a6;" vertex="1" parent="77e6c97f196da883-3">
          <mxGeometry x="75" y="770" width="170" height="50" as="geometry" />
        </mxCell>
        <mxCell id="nAtf7Hfz_0dXl6O6W2-j-96" value="v" style="rounded=0;whiteSpace=wrap;html=1;direction=south;strokeColor=#000000;fillColor=#000000;" vertex="1" parent="77e6c97f196da883-3">
          <mxGeometry x="60" y="940" width="10" height="77.5" as="geometry" />
        </mxCell>
        <mxCell id="nAtf7Hfz_0dXl6O6W2-j-97" value="" style="endArrow=classic;html=1;rounded=0;entryX=0;entryY=0.5;entryDx=0;entryDy=0;" edge="1" parent="77e6c97f196da883-3" target="nAtf7Hfz_0dXl6O6W2-j-98">
          <mxGeometry width="50" height="50" relative="1" as="geometry">
            <mxPoint x="70" y="978.25" as="sourcePoint" />
            <mxPoint x="160" y="978.25" as="targetPoint" />
          </mxGeometry>
        </mxCell>
        <mxCell id="nAtf7Hfz_0dXl6O6W2-j-101" value="" style="edgeStyle=orthogonalEdgeStyle;rounded=0;orthogonalLoop=1;jettySize=auto;html=1;" edge="1" parent="77e6c97f196da883-3" source="nAtf7Hfz_0dXl6O6W2-j-98">
          <mxGeometry relative="1" as="geometry">
            <mxPoint x="455" y="978.75" as="targetPoint" />
          </mxGeometry>
        </mxCell>
        <mxCell id="nAtf7Hfz_0dXl6O6W2-j-98" value="&lt;b&gt;Recebe ação do usuário&lt;/b&gt;" style="rounded=1;whiteSpace=wrap;html=1;fillColor=#e1d5e7;strokeColor=#9673a6;" vertex="1" parent="77e6c97f196da883-3">
          <mxGeometry x="160" y="953.75" width="170" height="50" as="geometry" />
        </mxCell>
        <mxCell id="nAtf7Hfz_0dXl6O6W2-j-103" value="" style="endArrow=classic;html=1;rounded=0;entryX=0.5;entryY=1;entryDx=0;entryDy=0;" edge="1" parent="77e6c97f196da883-3" target="nAtf7Hfz_0dXl6O6W2-j-104">
          <mxGeometry width="50" height="50" relative="1" as="geometry">
            <mxPoint x="470" y="966.25" as="sourcePoint" />
            <mxPoint x="470" y="870" as="targetPoint" />
          </mxGeometry>
        </mxCell>
        <mxCell id="nAtf7Hfz_0dXl6O6W2-j-104" value="&lt;b&gt;Aguarda próxima ação&amp;nbsp;&lt;/b&gt;" style="rounded=1;whiteSpace=wrap;html=1;fillColor=#e1d5e7;strokeColor=#9673a6;" vertex="1" parent="77e6c97f196da883-3">
          <mxGeometry x="385" y="800" width="170" height="50" as="geometry" />
        </mxCell>
        <mxCell id="nAtf7Hfz_0dXl6O6W2-j-105" value="(não)" style="text;html=1;align=center;verticalAlign=middle;whiteSpace=wrap;rounded=0;fontSize=13;" vertex="1" parent="77e6c97f196da883-3">
          <mxGeometry x="460" y="890" width="60" height="30" as="geometry" />
        </mxCell>
        <mxCell id="nAtf7Hfz_0dXl6O6W2-j-106" value="" style="endArrow=classic;html=1;rounded=0;" edge="1" parent="77e6c97f196da883-3">
          <mxGeometry width="50" height="50" relative="1" as="geometry">
            <mxPoint x="469.5" y="991.25" as="sourcePoint" />
            <mxPoint x="470" y="1100" as="targetPoint" />
          </mxGeometry>
        </mxCell>
        <mxCell id="nAtf7Hfz_0dXl6O6W2-j-108" value="(sim)" style="text;html=1;align=center;verticalAlign=middle;whiteSpace=wrap;rounded=0;fontSize=13;" vertex="1" parent="77e6c97f196da883-3">
          <mxGeometry x="460" y="1030" width="60" height="30" as="geometry" />
        </mxCell>
        <mxCell id="nAtf7Hfz_0dXl6O6W2-j-109" value="v" style="rounded=0;whiteSpace=wrap;html=1;direction=west;strokeColor=#000000;fillColor=#000000;" vertex="1" parent="77e6c97f196da883-3">
          <mxGeometry x="431.25" y="1100" width="77.5" height="10" as="geometry" />
        </mxCell>
        <mxCell id="nAtf7Hfz_0dXl6O6W2-j-110" value="" style="endArrow=classic;html=1;rounded=0;" edge="1" parent="77e6c97f196da883-3">
          <mxGeometry width="50" height="50" relative="1" as="geometry">
            <mxPoint x="489.5" y="1110" as="sourcePoint" />
            <mxPoint x="490" y="1180" as="targetPoint" />
          </mxGeometry>
        </mxCell>
        <mxCell id="nAtf7Hfz_0dXl6O6W2-j-112" value="&lt;b&gt;Registra o desejo do usuário&lt;/b&gt;" style="rounded=1;whiteSpace=wrap;html=1;fillColor=#e1d5e7;strokeColor=#9673a6;" vertex="1" parent="77e6c97f196da883-3">
          <mxGeometry x="431.25" y="1180" width="148.75" height="30" as="geometry" />
        </mxCell>
        <mxCell id="nAtf7Hfz_0dXl6O6W2-j-113" value="" style="endArrow=classic;html=1;rounded=0;entryX=0.75;entryY=0;entryDx=0;entryDy=0;" edge="1" parent="77e6c97f196da883-3" target="nAtf7Hfz_0dXl6O6W2-j-115">
          <mxGeometry width="50" height="50" relative="1" as="geometry">
            <mxPoint x="440" y="1110" as="sourcePoint" />
            <mxPoint x="380" y="1170" as="targetPoint" />
          </mxGeometry>
        </mxCell>
        <mxCell id="nAtf7Hfz_0dXl6O6W2-j-125" value="" style="edgeStyle=orthogonalEdgeStyle;rounded=0;orthogonalLoop=1;jettySize=auto;html=1;entryX=0.5;entryY=0;entryDx=0;entryDy=0;" edge="1" parent="77e6c97f196da883-3" source="nAtf7Hfz_0dXl6O6W2-j-115">
          <mxGeometry relative="1" as="geometry">
            <mxPoint x="335" y="1290" as="targetPoint" />
          </mxGeometry>
        </mxCell>
        <mxCell id="nAtf7Hfz_0dXl6O6W2-j-115" value="&lt;b&gt;Verifica autenticação&lt;/b&gt;" style="rounded=1;whiteSpace=wrap;html=1;fillColor=#e1d5e7;strokeColor=#9673a6;" vertex="1" parent="77e6c97f196da883-3">
          <mxGeometry x="270" y="1180" width="130" height="30" as="geometry" />
        </mxCell>
        <mxCell id="nAtf7Hfz_0dXl6O6W2-j-128" value="" style="edgeStyle=orthogonalEdgeStyle;rounded=0;orthogonalLoop=1;jettySize=auto;html=1;entryX=0;entryY=0.5;entryDx=0;entryDy=0;" edge="1" parent="77e6c97f196da883-3" target="nAtf7Hfz_0dXl6O6W2-j-129">
          <mxGeometry relative="1" as="geometry">
            <mxPoint x="395" y="1302.5" as="targetPoint" />
            <mxPoint x="355" y="1302.5" as="sourcePoint" />
          </mxGeometry>
        </mxCell>
        <mxCell id="nAtf7Hfz_0dXl6O6W2-j-133" value="" style="edgeStyle=orthogonalEdgeStyle;rounded=0;orthogonalLoop=1;jettySize=auto;html=1;entryX=0.605;entryY=0.053;entryDx=0;entryDy=0;entryPerimeter=0;" edge="1" parent="77e6c97f196da883-3" target="nAtf7Hfz_0dXl6O6W2-j-135">
          <mxGeometry relative="1" as="geometry">
            <mxPoint x="240" y="1340" as="targetPoint" />
            <mxPoint x="315" y="1302.5" as="sourcePoint" />
          </mxGeometry>
        </mxCell>
        <mxCell id="nAtf7Hfz_0dXl6O6W2-j-129" value="&lt;b&gt;Redireciona para o login&lt;/b&gt;" style="rounded=1;whiteSpace=wrap;html=1;fillColor=#e1d5e7;strokeColor=#9673a6;" vertex="1" parent="77e6c97f196da883-3">
          <mxGeometry x="450" y="1287.5" width="148.75" height="30" as="geometry" />
        </mxCell>
        <mxCell id="nAtf7Hfz_0dXl6O6W2-j-131" value="(não autenticado)" style="text;html=1;align=center;verticalAlign=middle;whiteSpace=wrap;rounded=0;" vertex="1" parent="77e6c97f196da883-3">
          <mxGeometry x="371.25" y="1270" width="68.75" height="30" as="geometry" />
        </mxCell>
        <mxCell id="nAtf7Hfz_0dXl6O6W2-j-134" value="(autenticado)" style="text;html=1;align=center;verticalAlign=middle;whiteSpace=wrap;rounded=0;" vertex="1" parent="77e6c97f196da883-3">
          <mxGeometry x="240" y="1270" width="60" height="30" as="geometry" />
        </mxCell>
        <mxCell id="nAtf7Hfz_0dXl6O6W2-j-135" value="&lt;b&gt;Gera notificação&lt;/b&gt;" style="rounded=1;whiteSpace=wrap;html=1;fillColor=#e1d5e7;strokeColor=#9673a6;" vertex="1" parent="77e6c97f196da883-3">
          <mxGeometry x="151.25" y="1360" width="148.75" height="30" as="geometry" />
        </mxCell>
        <mxCell id="BpLejBUO5Ut4dV1jbB08-1" value="" style="rhombus;whiteSpace=wrap;html=1;fillColor=#e1d5e7;strokeColor=#9673a6;gradientColor=none;" vertex="1" parent="77e6c97f196da883-3">
          <mxGeometry x="315" y="1290" width="40" height="25" as="geometry" />
        </mxCell>
        <mxCell id="BpLejBUO5Ut4dV1jbB08-3" value="" style="rhombus;whiteSpace=wrap;html=1;fillColor=#e1d5e7;strokeColor=#9673a6;" vertex="1" parent="77e6c97f196da883-3">
          <mxGeometry x="450" y="966.25" width="40" height="25" as="geometry" />
        </mxCell>
        <mxCell id="nAtf7Hfz_0dXl6O6W2-j-136" value="" style="endArrow=classic;html=1;rounded=0;entryX=0.954;entryY=1.067;entryDx=0;entryDy=0;entryPerimeter=0;exitX=0;exitY=0.5;exitDx=0;exitDy=0;" edge="1" parent="77e6c97f196da883-1" source="nAtf7Hfz_0dXl6O6W2-j-135" target="nAtf7Hfz_0dXl6O6W2-j-116">
          <mxGeometry width="50" height="50" relative="1" as="geometry">
            <mxPoint x="731.25" y="1380" as="sourcePoint" />
            <mxPoint x="781.25" y="1330" as="targetPoint" />
          </mxGeometry>
        </mxCell>
      </root>
    </mxGraphModel>
  </diagram>
</mxfile>
